<?xml version="1.0" standalone="no"?>
<!DOCTYPE svg PUBLIC "-//W3C//DTD SVG 1.1//EN" "http://www.w3.org/Graphics/SVG/1.1/DTD/svg11.dtd">
<svg version="1.1" xmlns="http://www.w3.org/2000/svg" viewBox="0 0 699.17578125 349.87890625" width="1398.3515625" height="699.7578125"><!-- svg-source:excalidraw --><metadata></metadata><defs><style class="style-fonts">
      </style></defs><g stroke-linecap="round" transform="translate(10 10) rotate(0 339.587890625 164.939453125)"><path d="M32 0 C222.02 2.63, 414.94 3.85, 647.18 0 C664.36 2.04, 676.88 13.59, 679.18 32 C680.39 101.16, 685.49 168.33, 679.18 297.88 C673.87 322.12, 672.78 334.75, 647.18 329.88 C455.03 329.26, 263.53 327.68, 32 329.88 C14.73 326.72, -2.46 315.71, 0 297.88 C-1.23 229.86, 5.34 163.12, 0 32 C3.47 6.57, 14.12 3.52, 32 0" stroke="none" stroke-width="0" fill="#e1e7ef"></path><path d="M32 0 C255.08 -2.46, 476.9 -2.93, 647.18 0 M32 0 C204.76 1.08, 376.93 0.84, 647.18 0 M647.18 0 C665.1 -3.45, 677.49 13.32, 679.18 32 M647.18 0 C665.45 4.52, 682.82 9, 679.18 32 M679.18 32 C683.29 133.01, 682.89 225.79, 679.18 297.88 M679.18 32 C676.2 117.84, 676.27 200.28, 679.18 297.88 M679.18 297.88 C678.57 316.21, 665.42 328.91, 647.18 329.88 M679.18 297.88 C675.46 315.86, 665.01 325.68, 647.18 329.88 M647.18 329.88 C495.77 327.14, 342.46 328.14, 32 329.88 M647.18 329.88 C438.81 328.03, 232.2 327.79, 32 329.88 M32 329.88 C7.52 327.09, 0.47 321.37, 0 297.88 M32 329.88 C14.84 332.55, 4.35 317.97, 0 297.88 M0 297.88 C1.89 204.44, 2.77 115.67, 0 32 M0 297.88 C2.54 223.25, 4.15 148.67, 0 32 M0 32 C-2.05 10.65, 11.36 -0.38, 32 0 M0 32 C1.53 9.53, 10.44 0.45, 32 0" stroke="transparent" stroke-width="4" fill="none"></path></g></svg>